<mxfile host="app.diagrams.net" agent="Mozilla/5.0 (X11; Linux x86_64) AppleWebKit/537.36 (KHTML, like Gecko) Chrome/131.0.0.0 Safari/537.36" version="26.2.2">
  <diagram name="Page-1" id="oLbauW618o4jG9lPmmIq">
    <mxGraphModel dx="1457" dy="705" grid="1" gridSize="10" guides="1" tooltips="1" connect="1" arrows="1" fold="1" page="1" pageScale="1" pageWidth="850" pageHeight="1100" math="0" shadow="0">
      <root>
        <mxCell id="0" />
        <mxCell id="1" parent="0" />
        <mxCell id="EtB2J6wu7Ywt0-0qn2xJ-22" value="" style="group" vertex="1" connectable="0" parent="1">
          <mxGeometry x="160" y="288" width="530" height="525" as="geometry" />
        </mxCell>
        <mxCell id="EtB2J6wu7Ywt0-0qn2xJ-5" value="" style="rounded=0;whiteSpace=wrap;html=1;container=0;" vertex="1" parent="EtB2J6wu7Ywt0-0qn2xJ-22">
          <mxGeometry y="43.40318181818185" width="530" height="481.59681818181815" as="geometry" />
        </mxCell>
        <mxCell id="EtB2J6wu7Ywt0-0qn2xJ-6" value="Prestação de Contas" style="text;html=1;align=center;verticalAlign=middle;whiteSpace=wrap;rounded=0;container=0;" vertex="1" parent="EtB2J6wu7Ywt0-0qn2xJ-22">
          <mxGeometry x="95.88815789473684" width="359.1447368421052" height="43.40198863636363" as="geometry" />
        </mxCell>
        <mxCell id="EtB2J6wu7Ywt0-0qn2xJ-1" style="edgeStyle=orthogonalEdgeStyle;rounded=0;orthogonalLoop=1;jettySize=auto;html=1;endArrow=block;endFill=0;" edge="1" parent="1" source="BHRdflngnah-wwCTT8mC-1" target="BHRdflngnah-wwCTT8mC-2">
          <mxGeometry relative="1" as="geometry" />
        </mxCell>
        <mxCell id="EtB2J6wu7Ywt0-0qn2xJ-4" style="edgeStyle=orthogonalEdgeStyle;rounded=0;orthogonalLoop=1;jettySize=auto;html=1;" edge="1" parent="1" source="BHRdflngnah-wwCTT8mC-1" target="BHRdflngnah-wwCTT8mC-4">
          <mxGeometry relative="1" as="geometry" />
        </mxCell>
        <mxCell id="EtB2J6wu7Ywt0-0qn2xJ-11" style="edgeStyle=orthogonalEdgeStyle;rounded=0;orthogonalLoop=1;jettySize=auto;html=1;entryX=1;entryY=0.5;entryDx=0;entryDy=0;" edge="1" parent="1" source="BHRdflngnah-wwCTT8mC-1" target="EtB2J6wu7Ywt0-0qn2xJ-8">
          <mxGeometry relative="1" as="geometry" />
        </mxCell>
        <mxCell id="EtB2J6wu7Ywt0-0qn2xJ-12" style="edgeStyle=orthogonalEdgeStyle;rounded=0;orthogonalLoop=1;jettySize=auto;html=1;entryX=1;entryY=0.5;entryDx=0;entryDy=0;" edge="1" parent="1" source="BHRdflngnah-wwCTT8mC-1" target="EtB2J6wu7Ywt0-0qn2xJ-9">
          <mxGeometry relative="1" as="geometry" />
        </mxCell>
        <mxCell id="EtB2J6wu7Ywt0-0qn2xJ-17" style="edgeStyle=orthogonalEdgeStyle;rounded=0;orthogonalLoop=1;jettySize=auto;html=1;" edge="1" parent="1" source="BHRdflngnah-wwCTT8mC-1" target="EtB2J6wu7Ywt0-0qn2xJ-14">
          <mxGeometry relative="1" as="geometry" />
        </mxCell>
        <mxCell id="EtB2J6wu7Ywt0-0qn2xJ-18" style="edgeStyle=orthogonalEdgeStyle;rounded=0;orthogonalLoop=1;jettySize=auto;html=1;entryX=0;entryY=0.5;entryDx=0;entryDy=0;" edge="1" parent="1" source="BHRdflngnah-wwCTT8mC-1" target="EtB2J6wu7Ywt0-0qn2xJ-15">
          <mxGeometry relative="1" as="geometry" />
        </mxCell>
        <mxCell id="EtB2J6wu7Ywt0-0qn2xJ-19" style="edgeStyle=orthogonalEdgeStyle;rounded=0;orthogonalLoop=1;jettySize=auto;html=1;entryX=0;entryY=0.5;entryDx=0;entryDy=0;" edge="1" parent="1" source="BHRdflngnah-wwCTT8mC-1" target="EtB2J6wu7Ywt0-0qn2xJ-16">
          <mxGeometry relative="1" as="geometry" />
        </mxCell>
        <mxCell id="BHRdflngnah-wwCTT8mC-1" value="Síndico" style="shape=umlActor;verticalLabelPosition=bottom;verticalAlign=top;html=1;outlineConnect=0;container=0;" parent="1" vertex="1">
          <mxGeometry x="409" y="515" width="30" height="60" as="geometry" />
        </mxCell>
        <mxCell id="EtB2J6wu7Ywt0-0qn2xJ-3" style="edgeStyle=orthogonalEdgeStyle;rounded=0;orthogonalLoop=1;jettySize=auto;html=1;entryX=1;entryY=0.5;entryDx=0;entryDy=0;" edge="1" parent="1" source="BHRdflngnah-wwCTT8mC-2" target="EtB2J6wu7Ywt0-0qn2xJ-2">
          <mxGeometry relative="1" as="geometry" />
        </mxCell>
        <mxCell id="EtB2J6wu7Ywt0-0qn2xJ-21" style="edgeStyle=orthogonalEdgeStyle;rounded=0;orthogonalLoop=1;jettySize=auto;html=1;entryX=0;entryY=0.5;entryDx=0;entryDy=0;" edge="1" parent="1" source="BHRdflngnah-wwCTT8mC-2" target="EtB2J6wu7Ywt0-0qn2xJ-20">
          <mxGeometry relative="1" as="geometry" />
        </mxCell>
        <mxCell id="BHRdflngnah-wwCTT8mC-2" value="Morador" style="shape=umlActor;verticalLabelPosition=bottom;verticalAlign=top;html=1;outlineConnect=0;container=0;" parent="1" vertex="1">
          <mxGeometry x="409" y="385" width="30" height="60" as="geometry" />
        </mxCell>
        <mxCell id="BHRdflngnah-wwCTT8mC-4" value="Registrar Conta" style="ellipse;whiteSpace=wrap;html=1;container=0;" parent="1" vertex="1">
          <mxGeometry x="199" y="505" width="120" height="80" as="geometry" />
        </mxCell>
        <mxCell id="EtB2J6wu7Ywt0-0qn2xJ-2" value="Visualizar Contas" style="ellipse;whiteSpace=wrap;html=1;container=0;" vertex="1" parent="1">
          <mxGeometry x="199" y="375" width="120" height="80" as="geometry" />
        </mxCell>
        <mxCell id="EtB2J6wu7Ywt0-0qn2xJ-9" value="Apagar Conta" style="ellipse;whiteSpace=wrap;html=1;container=0;" vertex="1" parent="1">
          <mxGeometry x="200.75" y="700" width="120" height="80" as="geometry" />
        </mxCell>
        <mxCell id="EtB2J6wu7Ywt0-0qn2xJ-8" value="Editar Conta" style="ellipse;whiteSpace=wrap;html=1;container=0;" vertex="1" parent="1">
          <mxGeometry x="200.75" y="600" width="120" height="80" as="geometry" />
        </mxCell>
        <mxCell id="EtB2J6wu7Ywt0-0qn2xJ-14" value="Criar Tag" style="ellipse;whiteSpace=wrap;html=1;container=0;" vertex="1" parent="1">
          <mxGeometry x="531" y="505" width="120" height="80" as="geometry" />
        </mxCell>
        <mxCell id="EtB2J6wu7Ywt0-0qn2xJ-15" value="Editar Tag" style="ellipse;whiteSpace=wrap;html=1;container=0;" vertex="1" parent="1">
          <mxGeometry x="531" y="602" width="120" height="80" as="geometry" />
        </mxCell>
        <mxCell id="EtB2J6wu7Ywt0-0qn2xJ-16" value="Apagar Tag" style="ellipse;whiteSpace=wrap;html=1;container=0;" vertex="1" parent="1">
          <mxGeometry x="531" y="702" width="120" height="80" as="geometry" />
        </mxCell>
        <mxCell id="EtB2J6wu7Ywt0-0qn2xJ-20" value="Listar Tags" style="ellipse;whiteSpace=wrap;html=1;container=0;" vertex="1" parent="1">
          <mxGeometry x="531" y="375" width="120" height="80" as="geometry" />
        </mxCell>
      </root>
    </mxGraphModel>
  </diagram>
</mxfile>
